<?xml version="1.0" encoding="UTF-8"?>
<svg version="1.1" xmlns="http://www.w3.org/2000/svg" width="2235" height="510">
<path d="M0 0 C1.20844279 -0.00170885 2.41688558 -0.0034177 3.66194785 -0.00517833 C6.97106905 -0.00787635 10.27994692 -0.00172857 13.58903837 0.00837779 C17.17437411 0.01709391 20.75970363 0.01408642 24.345047 0.01257324 C30.54193232 0.0115295 36.73877522 0.01775232 42.93564987 0.02904892 C51.89505159 0.04537075 60.854433 0.05051873 69.81384797 0.0530249 C84.35333742 0.05739157 98.89280429 0.07067264 113.43228149 0.08963013 C127.54784025 0.10801563 141.66339285 0.12215903 155.77896118 0.13064575 C157.08622854 0.13143392 157.08622854 0.13143392 158.41990535 0.13223802 C162.79244931 0.13484828 167.16499331 0.13737565 171.53753734 0.13986182 C207.75605283 0.16056228 243.97452655 0.19741466 280.19302368 0.24050903 C280.19302368 23.67050903 280.19302368 47.10050903 280.19302368 71.24050903 C267.13957397 71.26238281 267.13957397 71.26238281 253.82241821 71.28469849 C225.96591149 71.33347496 198.10945526 71.39688936 170.25300086 71.46949532 C165.92474053 71.48076323 161.59647987 71.49190172 157.26821899 71.50296021 C155.97572215 71.50626573 155.97572215 71.50626573 154.65711425 71.50963803 C140.71234845 71.54499287 126.76758271 71.56986724 112.82278873 71.59085605 C98.50996755 71.61263255 84.19720444 71.64570054 69.88443267 71.68921059 C61.0554789 71.71569545 52.22659746 71.73341413 43.39760594 71.73985507 C37.34001332 71.74511865 31.28251165 71.76136813 25.22496779 71.78617469 C21.73212503 71.80015654 18.23944497 71.80937296 14.74657249 71.8055172 C10.95323396 71.80386381 7.16039626 71.82057071 3.36712646 71.84178162 C2.27177082 71.83693404 1.17641518 71.83208646 0.04786694 71.82709199 C-11.59641421 71.93435222 -20.87801204 74.94425641 -29.56088257 82.83425903 C-43.84898949 98.01761075 -39.34459354 124.66996358 -39.80697632 142.24050903 C43.02302368 142.24050903 125.85302368 142.24050903 211.19302368 142.24050903 C211.19302368 165.67050903 211.19302368 189.10050903 211.19302368 213.24050903 C128.36302368 213.24050903 45.53302368 213.24050903 -39.80697632 213.24050903 C-44.69566002 257.68172382 -44.69566002 257.68172382 -29.86557007 310.30300903 C-21.01607936 318.63194147 -11.74454131 320.53929388 0 320.51898193 C1.19752384 320.52477434 2.39504768 320.53056674 3.62886012 320.53653467 C6.94462571 320.55058361 10.26018966 320.55576386 13.57597041 320.55718327 C17.15465496 320.56088198 20.73329324 320.57603981 24.31195068 320.58979797 C30.50950001 320.61205982 36.70703285 320.62707956 42.90461349 320.63716507 C51.86524213 320.65175746 60.82581334 320.67729586 69.78640826 320.70549636 C84.32476355 320.75095417 98.86312712 320.78757316 113.40151978 320.81863403 C127.52327934 320.84882371 141.64501868 320.88317591 155.76675415 320.92312622 C156.63738052 320.92558777 157.50800689 320.92804932 158.40501587 320.93058546 C162.77274107 320.94296014 167.14046602 320.95541666 171.50819087 320.96791387 C207.73644456 321.07146654 243.96471226 321.15904649 280.19302368 321.24050903 C280.19302368 344.67050903 280.19302368 368.10050903 280.19302368 392.24050903 C242.5529905 392.32882366 204.91305567 392.40262904 167.2729484 392.44477035 C162.82109505 392.4497727 158.36924193 392.45495003 153.91738892 392.4602356 C153.03116961 392.46128484 152.14495031 392.46233408 151.23187587 392.46341512 C136.91485463 392.48078231 122.59789815 392.51229951 108.28091522 392.54912022 C93.5714561 392.58663254 78.86203071 392.60876655 64.15252572 392.61686301 C55.08860235 392.62232953 46.02486212 392.63954417 36.96099517 392.6721749 C30.73096082 392.69345012 24.50102004 392.69967994 18.27095207 392.69451454 C14.68577623 392.69197279 11.10091856 392.69564457 7.51580048 392.71733093 C-27.36534701 392.9174951 -55.82251316 385.63473673 -81.39291382 360.72097778 C-95.48395877 345.91454132 -104.36162817 328.07727763 -108.80697632 308.24050903 C-108.98392627 307.52467777 -109.16087622 306.80884651 -109.34318829 306.07132339 C-109.96418616 302.28095028 -109.95503126 298.53474885 -109.95414734 294.70529175 C-109.95782403 293.84730114 -109.96150072 292.98931054 -109.96528882 292.10532022 C-109.97629999 289.23078071 -109.98016523 286.35627739 -109.98397827 283.48171997 C-109.99024515 281.41992071 -109.99689215 279.35812258 -110.00389099 277.29632568 C-110.02491739 270.52251977 -110.03529609 263.74871369 -110.04525757 256.97488403 C-110.04930648 254.63841999 -110.05342344 252.30195606 -110.05760765 249.96549225 C-110.07666083 238.98081166 -110.0908883 227.99613778 -110.09921962 217.01144385 C-110.10897513 204.35953144 -110.13525009 191.70779476 -110.17572051 179.0559442 C-110.20596852 169.26117745 -110.22069695 159.46646079 -110.22400063 149.67164826 C-110.22634235 143.82989592 -110.23518715 137.98833128 -110.26046181 132.14662933 C-110.28389797 126.64065511 -110.28791372 121.13499008 -110.27770042 115.62897873 C-110.27720862 113.62040803 -110.28342274 111.61182131 -110.29725647 109.60329819 C-110.50463335 77.67824288 -99.31645268 51.16508063 -77.05307007 28.42800903 C-70.59089805 22.2574343 -63.59188859 17.58841541 -55.80697632 13.24050903 C-54.85178101 12.6952356 -53.89658569 12.14996216 -52.91244507 11.58816528 C-47.26866723 8.55395914 -41.54640886 6.34209171 -35.43197632 4.49050903 C-34.78518921 4.29175171 -34.1384021 4.09299438 -33.47201538 3.88821411 C-22.54237547 0.77708064 -11.31238661 -0.05995114 0 0 Z " fill="#E5E6E7" transform="translate(109.80697631835938,-0.240509033203125)"/>
<path d="M0 0 C23.33571416 0 46.6691439 0.52386008 70 1 C70 130.03 70 259.06 70 392 C65.38864605 390.15545842 63.15564184 388.67357918 59.5 385.5 C55.29263172 381.90088648 51.03056102 378.41643692 46.625 375.0625 C42.1605706 371.65811472 37.72146668 368.22598546 33.3125 364.75 C25.68016273 358.73800729 18.00905489 352.7763529 10.33642578 346.81591797 C7.99282947 344.99442692 5.65050573 343.17131223 3.30859375 341.34765625 C-5.43922002 334.53644459 -14.20487384 327.75000788 -23 321 C-25.16710847 319.33390747 -27.33354953 317.66694801 -29.5 316 C-30.58332124 315.16665095 -31.66665456 314.33331759 -32.75 313.5 C-52.25 298.5 -52.25 298.5 -53.87402344 297.25073242 C-54.96058779 296.41492624 -56.04717645 295.57915165 -57.13378906 294.7434082 C-59.79288548 292.69816364 -62.4514994 290.65230009 -65.109375 288.60546875 C-71.23103457 283.8924 -77.36160412 279.19125402 -83.5 274.5 C-90.67781092 269.01437558 -97.84245047 263.51203249 -105 258 C-107.16644651 256.33304708 -109.33322497 254.66652587 -111.5 253 C-112.58333938 252.16667453 -113.66667272 251.3333412 -114.75 250.5 C-115.28625 250.0875 -115.8225 249.675 -116.375 249.25 C-152.66666667 221.33333333 -188.95833333 193.41666667 -225.25 165.5 C-225.7872168 165.0867749 -226.32443359 164.6735498 -226.87792969 164.24780273 C-227.95157014 163.42188817 -229.02513891 162.59588042 -230.09863281 161.76977539 C-232.95465919 159.57213002 -235.81223565 157.37653636 -238.671875 155.18359375 C-239.27064453 154.72404297 -239.86941406 154.26449219 -240.48632812 153.79101562 C-241.64082281 152.90500807 -242.79575402 152.01956896 -243.95117188 151.13476562 C-247.8875378 148.1124622 -247.8875378 148.1124622 -249 147 C-249.33 227.85 -249.66 308.7 -250 392 C-273.43 392 -296.86 392 -321 392 C-321 263.3 -321 134.6 -321 2 C-315.64726331 5.56849113 -310.53848112 8.99989686 -305.5625 13 C-304.35194367 13.96141764 -303.14098578 14.92232981 -301.9296875 15.8828125 C-300.97787598 16.63933105 -300.97787598 16.63933105 -300.00683594 17.41113281 C-296.41680419 20.25345965 -292.80227055 23.06424511 -289.1875 25.875 C-288.42767822 26.46603516 -287.66785645 27.05707031 -286.88500977 27.66601562 C-281.07835895 32.17636922 -275.24187154 36.64661135 -269.39526367 41.10498047 C-264.240112 45.0402562 -259.11465729 49.01227312 -254 53 C-246.07877058 59.17441368 -238.11259581 65.28778665 -230.12646484 71.37792969 C-226.49888622 74.14505166 -222.87437434 76.9161831 -219.25 79.6875 C-218.54125732 80.22938965 -217.83251465 80.7712793 -217.10229492 81.32958984 C-210.7251051 86.20709213 -204.36099228 91.10139665 -198 96 C-195.83355349 97.66695292 -193.66677503 99.33347413 -191.5 101 C-190.41666062 101.83332547 -189.33332728 102.6666588 -188.25 103.5 C-187.71375 103.9125 -187.1775 104.325 -186.625 104.75 C-79.37499999 187.25000001 -79.37499999 187.25000001 -24.12255859 229.75195312 C-23.04746023 230.57890209 -21.9722661 231.40572658 -20.89697266 232.23242188 C-18.06181562 234.41238471 -15.22872659 236.59496967 -12.3984375 238.78125 C-11.80869141 239.23628906 -11.21894531 239.69132813 -10.61132812 240.16015625 C-9.48180671 241.03175546 -8.35286854 241.90411121 -7.22460938 242.77734375 C-4.85813212 244.60231357 -2.48823606 246.34117596 0 248 C0 166.16 0 84.32 0 0 Z " fill="#E5E6E7" transform="translate(2160,0)"/>
<path d="M0 0 C45.56754044 -1.50098175 91.20944097 11.48104538 127.27685547 39.83300781 C128.70481183 40.95390976 130.15274205 42.04925564 131.60302734 43.14111328 C172.59433346 75.00253758 197.09213909 122.60363623 204.20800781 173.51025391 C209.99412218 223.71846204 196.10078193 275.05868517 165.28271484 315.07861328 C154.87410477 328.03042743 144.02649316 339.84302033 130.86865234 350.08251953 C130.335625 350.50259277 129.80259766 350.92266602 129.25341797 351.35546875 C87.93538877 383.71166061 35.06491165 397.45557988 -16.89916992 391.2578125 C-21.00821991 390.67198805 -25.0691022 389.93210157 -29.13134766 389.08251953 C-29.95844238 388.91091309 -30.78553711 388.73930664 -31.63769531 388.5625 C-83.13401081 377.50428142 -127.59521423 346.4865906 -156.51025391 302.52783203 C-185.18177986 257.30895663 -193.87601446 203.25057705 -182.28320312 151.1340332 C-170.13438885 100.30083663 -137.45282716 55.91967169 -93.18554688 28.32519531 C-65.07987167 11.32283178 -32.87518868 1.2728309 0 0 Z M-84.86181641 113.06298828 C-107.5033828 139.54094717 -117.94755134 172.41841687 -116.13134766 207.08251953 C-113.02661493 241.45684222 -95.74282714 272.50582074 -69.37109375 294.55419922 C-42.64461733 315.65444649 -8.98323011 324.42846427 24.78613281 320.76611328 C30.57438378 319.90472285 36.22168942 318.60539595 41.86865234 317.08251953 C42.52833008 316.91123535 43.18800781 316.73995117 43.86767578 316.56347656 C64.7519422 310.9746536 82.31122021 298.71358968 97.86865234 284.08251953 C98.47064453 283.54498047 99.07263672 283.00744141 99.69287109 282.45361328 C119.99454521 263.57163665 132.65748187 232.87616883 133.99414062 205.51367188 C135.30059143 167.94172233 123.12006001 135.41683954 97.49267578 107.75683594 C93.61747717 103.76162968 89.34038976 100.37712788 84.86865234 97.08251953 C84.13001953 96.50630859 83.39138672 95.93009766 82.63037109 95.33642578 C65.78573886 82.73931739 46.46221152 75.52279869 25.86865234 72.08251953 C25.09521484 71.94974609 24.32177734 71.81697266 23.52490234 71.68017578 C-16.87206048 66.00906369 -57.94071233 83.09531748 -84.86181641 113.06298828 Z " fill="#E5E6E7" transform="translate(1593.13134765625,-0.08251953125)"/>
<path d="M0 0 C1.11007662 -0.00470579 2.22015324 -0.00941159 3.36386855 -0.01425998 C5.1903019 -0.00673335 5.1903019 -0.00673335 7.0536329 0.00094534 C8.35582471 -0.00161084 9.65801653 -0.00416701 10.9996687 -0.00680064 C14.63472181 -0.0136478 18.26966598 -0.00796235 21.90471359 -0.00033257 C25.86631837 0.00577843 29.82790964 0.00028276 33.78951473 -0.00374632 C40.76632557 -0.00922729 47.7431038 -0.00721964 54.71991302 -0.00042403 C65.16439379 0.00970944 75.60885115 0.00832578 86.05333505 0.00464281 C103.85100825 -0.00129708 121.64866837 0.00226645 139.44633995 0.01093138 C157.49037007 0.01967763 175.53439343 0.02407771 193.57842575 0.02312697 C195.28586535 0.02304089 195.28586535 0.02304089 197.02779868 0.02295308 C202.83162427 0.02264034 208.63544986 0.02225644 214.43927544 0.0218474 C256.48353163 0.01902995 298.52778179 0.02590259 340.57203613 0.03788222 C382.21929265 0.04972041 423.86654658 0.05743104 465.51380477 0.05958784 C467.45271317 0.05969108 467.45271317 0.05969108 469.43079144 0.0597964 C481.23646277 0.06042278 493.04213409 0.06099817 504.84780543 0.06151235 C534.19757377 0.06279127 563.54734205 0.06470904 592.89711032 0.06706274 C593.89938839 0.06714264 593.89938839 0.06714264 594.92191449 0.06722416 C638.20361543 0.07067968 681.48531552 0.07677513 724.7670158 0.08507956 C725.45811375 0.08521214 726.14921169 0.08534471 726.86125201 0.08548131 C747.89908245 0.08952274 768.93691286 0.09375949 789.97474325 0.09803445 C813.2557723 0.10276437 836.53680135 0.10746097 859.81783042 0.11201323 C860.8679257 0.11221873 860.8679257 0.11221873 861.93923502 0.11242838 C928.42249323 0.12542783 994.90575171 0.13305008 1061.38901086 0.1392808 C1064.20481494 0.13954508 1067.02061903 0.13981093 1069.83642311 0.14007683 C1095.7479501 0.14252363 1121.65947709 0.14490729 1147.57100409 0.14721167 C1148.2600116 0.14727295 1148.94901911 0.14733423 1149.65890564 0.14739737 C1151.74503502 0.14758289 1153.83116441 0.1477684 1155.91729379 0.1479539 C1211.61205227 0.15290663 1267.3068107 0.15839049 1323.00156909 0.16423799 C1325.65399875 0.16451647 1328.3064284 0.16479458 1330.95885805 0.16507232 C1450.3906298 0.17758115 1569.82240029 0.19625787 1689.25417076 0.21760405 C1690.3726667 0.21780392 1691.49116265 0.21800379 1692.64355241 0.21820972 C1748.58496628 0.22821098 1804.52638008 0.23855913 1860.4677938 0.24934233 C1860.64395714 4.061246 1860.74926216 7.87208731 1860.8427938 11.68684233 C1860.91820396 13.29075835 1860.91820396 13.29075835 1860.99513755 14.9270767 C1861.13623876 22.61709239 1859.83651747 27.59627765 1854.4677938 33.24934233 C1849.06740413 37.51806602 1842.32228524 36.66263497 1835.74493216 36.62193782 C1834.4400734 36.62577208 1833.13521464 36.62960634 1831.79081471 36.63355678 C1828.15288999 36.64381504 1824.51521068 36.63530806 1820.87729838 36.62385468 C1816.91087619 36.61467983 1812.94448414 36.62293386 1808.97806124 36.62897531 C1801.99430909 36.63719291 1795.01063026 36.63418943 1788.02688175 36.62399188 C1777.57203802 36.60878554 1767.11724685 36.61086855 1756.66239606 36.6163916 C1738.84668346 36.62529946 1721.0310003 36.61995853 1703.21529136 36.60695875 C1685.15394124 36.59383768 1667.09260633 36.58723946 1649.03125129 36.58866537 C1647.32193883 36.58879449 1647.32193883 36.58879449 1645.5780948 36.58892621 C1639.76786531 36.58939532 1633.95763583 36.58997117 1628.14740635 36.59058472 C1586.06074152 36.5948105 1543.97409024 36.58450334 1501.88742958 36.5665325 C1460.19913289 36.54877423 1418.51084202 36.53720906 1376.82254158 36.53397406 C1374.88160637 36.53381921 1374.88160637 36.53381921 1372.90146036 36.53366122 C1361.08342004 36.53272165 1349.26537972 36.53185857 1337.44733939 36.5310873 C1308.06703369 36.52916894 1278.68672812 36.5262923 1249.30642257 36.52276171 C1248.63754752 36.52268181 1247.96867247 36.52260191 1247.27952847 36.52251959 C1203.95439704 36.51733645 1160.62926752 36.50819346 1117.30413757 36.49573649 C1116.26647846 36.49543819 1116.26647846 36.49543819 1115.20785653 36.49513386 C1094.14955844 36.48907174 1073.09126044 36.48271661 1052.03296246 36.47630416 C1028.72929787 36.46920926 1005.42563327 36.46216435 982.12196861 36.45533598 C981.07085003 36.45502773 981.07085003 36.45502773 979.99849673 36.45471326 C913.44843293 36.43521349 846.89836852 36.42378052 780.34830261 36.41443463 C777.52961248 36.4140382 774.71092235 36.41363943 771.89223222 36.41324057 C745.95411573 36.40957037 720.01599924 36.40599488 694.07788273 36.40253832 C693.38816721 36.4024464 692.69845168 36.40235448 691.98783569 36.40225977 C689.89956263 36.40198148 687.81128957 36.40170323 685.7230165 36.40142498 C629.97126316 36.39399591 574.21950994 36.38577012 518.46775679 36.37699884 C515.81262254 36.37658112 513.15748829 36.37616396 510.50235404 36.37574735 C390.95128129 36.35698449 271.40021134 36.32896954 151.84914146 36.29694975 C150.7295461 36.29664995 149.60995074 36.29635014 148.45642824 36.29604125 C92.46021661 36.2810394 36.46400512 36.26551719 -19.5322062 36.24934233 C-19.61976925 32.54115936 -19.67278635 28.8332447 -19.7197062 25.12434233 C-19.74484292 24.07762358 -19.76997963 23.03090483 -19.79587807 21.95246733 C-19.84946532 16.30794432 -19.83995073 12.06764935 -16.5322062 7.24934233 C-11.36743439 2.30912582 -7.14897524 -0.00095812 0 0 Z " fill="#E5E6E7" transform="translate(22.53220619633794,436.75065767019987)"/>
<path d="M0 0 C11.39591669 -0.34877389 22.79054908 -0.61467037 34.19073105 -0.77718258 C39.48568985 -0.85521802 44.77697832 -0.96088129 50.06982422 -1.1315918 C55.18600211 -1.29555628 60.29867078 -1.38445134 65.41727448 -1.42315865 C67.36167916 -1.45070791 69.30590821 -1.50451663 71.24880219 -1.58595085 C86.04779883 -2.18110689 86.04779883 -2.18110689 90.9904213 1.47053719 C94.56504861 4.99938003 97.32626755 8.96627622 99.92246628 13.24923325 C101.29694636 15.48247569 102.87811005 17.51167853 104.5234375 19.55078125 C105.47554345 20.80348433 106.42609552 22.05737011 107.375 23.3125 C111.88022166 29.23725015 116.42222786 35.13112634 121 41 C127.22370544 48.9829165 133.37960686 57.01592806 139.52001953 65.06298828 C143.33253539 70.05284325 147.1685218 75.02470368 151 80 C152.66695292 82.16644651 154.33347413 84.33322497 156 86.5 C156.83332547 87.58333938 157.6666588 88.66667272 158.5 89.75 C173.5 109.25 173.5 109.25 174.7512207 110.87695312 C175.58001267 111.95413964 176.40927289 113.03096605 177.23901367 114.10742188 C179.3959197 116.90694592 181.54297368 119.71331187 183.67578125 122.53125 C184.11728516 123.11197266 184.55878906 123.69269531 185.01367188 124.29101562 C186.23685252 125.90046384 187.45643669 127.51264356 188.67578125 129.125 C190.9791593 131.97422058 193.36522619 134.46315584 196 137 C203.04643817 128.45335241 209.9455755 119.83851539 216.54345703 110.94018555 C220.4617858 105.67255403 224.52514408 100.53737348 228.64526367 95.42675781 C232.18422526 91.03324534 235.65110992 86.59379169 239.07958984 82.11328125 C242.61391982 77.4954239 246.17783604 72.90114535 249.75 68.3125 C250.63921143 67.17010864 250.63921143 67.17010864 251.54638672 66.00463867 C252.75934681 64.44654195 253.97240086 62.88851837 255.18554688 61.33056641 C258.12513336 57.55482736 261.06250584 53.77736693 264 50 C267.54572028 45.44050616 271.09199896 40.8814516 274.640625 36.32421875 C275.84381405 34.77869569 277.04693971 33.23312329 278.25 31.6875 C278.83346191 30.93791016 279.41692383 30.18832031 280.01806641 29.41601562 C284.21091887 24.02503568 288.37763458 18.61473292 292.5234375 13.1875 C293.11304764 12.47054459 293.11304764 12.47054459 293.71456909 11.73910522 C295.10854663 9.94678132 295.10854663 9.94678132 296.28762817 7.53555298 C298.50715933 3.86143989 300.62888867 0.68593391 304.93970871 -0.56113434 C310.93501394 -1.44123896 316.99355859 -1.14534475 323.03125 -0.9765625 C324.99276108 -0.95789313 326.95431903 -0.94366707 328.91589355 -0.9336853 C334.05951448 -0.89564366 339.20027631 -0.79754409 344.34277344 -0.68664551 C349.59791386 -0.58403779 354.85351993 -0.53861082 360.109375 -0.48828125 C370.40750092 -0.38128311 380.70351202 -0.21078988 391 0 C389.72154361 2.60632921 388.4204233 4.93829539 386.671875 7.2578125 C386.20894043 7.87422607 385.74600586 8.49063965 385.26904297 9.12573242 C384.5171167 10.11536987 384.5171167 10.11536987 383.75 11.125 C383.22422363 11.82149658 382.69844727 12.51799316 382.15673828 13.2355957 C376.93732718 20.12769869 371.62506597 26.94746261 366.3046875 33.76171875 C363.51999377 37.32876368 360.754755 40.90978651 358 44.5 C354.08468658 49.60080112 350.14000512 54.67797742 346.1875 59.75 C339.90299498 67.81750692 333.68354012 75.93317344 327.47998047 84.06298828 C324.45661906 88.01999082 321.41727147 91.96467076 318.37890625 95.91015625 C316.80188021 97.95847742 315.22634141 100.00794455 313.65234375 102.05859375 C308.8543524 108.30768492 304.02989136 114.53524417 299.1875 120.75 C292.90305059 128.8175508 286.68354062 136.93317278 280.47998047 145.06298828 C277.45661906 149.01999082 274.41727147 152.96467076 271.37890625 156.91015625 C269.80188021 158.95847742 268.22634141 161.00794455 266.65234375 163.05859375 C261.79095865 169.39025142 256.90398956 175.70127363 252 182 C247.74067556 187.4719846 243.48402624 192.94590477 239.25 198.4375 C238.08210938 199.95150391 238.08210938 199.95150391 236.890625 201.49609375 C233.45097224 206.05150164 232.70627206 208.76999998 232.7215271 214.34611511 C232.7128385 215.47702048 232.7128385 215.47702048 232.70397437 216.63077241 C232.68693043 219.16429164 232.68409412 221.69762919 232.68115234 224.23120117 C232.67185719 226.04443307 232.66168914 227.85766068 232.65071106 229.67088318 C232.6233504 234.60029126 232.60824371 239.52967067 232.59528303 244.45913482 C232.57967898 249.60815082 232.55288012 254.75710804 232.5272522 259.90608215 C232.48041604 269.65951758 232.44369537 279.41296401 232.41057932 289.16645461 C232.37239207 300.26913036 232.32297304 311.37174714 232.27259517 322.47437322 C232.16920336 345.31621075 232.08144942 368.15807296 232 391 C208.57 391 185.14 391 161 391 C161.00636475 385.49828125 161.01272949 379.9965625 161.01928711 374.328125 C161.03521968 356.16326592 161.01319356 337.99860001 160.97153378 319.83378601 C160.94720093 308.81895489 160.93589216 297.80439881 160.95532227 286.78955078 C160.97222596 277.18813497 160.96461306 267.58710387 160.92765242 257.98573875 C160.90893815 252.90250614 160.90243851 247.81992409 160.92530632 242.73669434 C160.94645491 237.94947328 160.93475732 233.16344265 160.89815521 228.37632561 C160.89047848 226.62200936 160.89467553 224.86759352 160.91181374 223.11334419 C161.30781014 212.39858463 161.30781014 212.39858463 156.64527893 203.13452148 C155.44818282 202.06910913 154.23344477 201.02311123 153 200 C151.90499841 198.73449006 150.83126858 197.44995704 149.7890625 196.140625 C149.27126221 195.50616455 148.75346191 194.8717041 148.2199707 194.21801758 C147.69363037 193.56857178 147.16729004 192.91912598 146.625 192.25 C146.06192139 191.55608154 145.49884277 190.86216309 144.91870117 190.1472168 C140.8864199 185.15330747 136.99189809 180.08030033 133.171875 174.921875 C130.8342041 171.77695084 128.45555805 168.66529684 126.0625 165.5625 C125.64589111 165.02214111 125.22928223 164.48178223 124.80004883 163.92504883 C123.95560198 162.83025063 123.11095622 161.73560584 122.26611328 160.64111328 C120.17432787 157.92977862 118.08743433 155.21468489 116 152.5 C115.16146627 151.41015014 114.32292461 150.32030639 113.484375 149.23046875 C111.8684674 147.12991492 110.25414838 145.02817016 108.640625 142.92578125 C103.84624905 136.68212498 99.02588912 130.45961933 94.1875 124.25 C87.90305059 116.1824492 81.68354062 108.06682722 75.47998047 99.93701172 C71.66746461 94.94715675 67.8314782 89.97529632 64 85 C62.75233604 83.37848015 61.50491248 81.75677566 60.25756836 80.13500977 C59.41863284 79.04427958 58.57960276 77.95362212 57.74047852 76.86303711 C55.70570351 74.21842284 53.67218697 71.57286614 51.640625 68.92578125 C46.84624905 62.68212498 42.02588912 56.45961933 37.1875 50.25 C30.90755395 42.1882303 24.69234385 34.07853075 18.49316406 25.95458984 C16.2095499 22.96528066 13.91820176 19.98195701 11.625 17 C10.44164062 15.45892578 10.44164062 15.45892578 9.234375 13.88671875 C7.77777639 12.00485446 6.30952302 10.13193631 4.828125 8.26953125 C3.86132812 7.05330078 3.86132812 7.05330078 2.875 5.8125 C2.31554688 5.11769531 1.75609375 4.42289062 1.1796875 3.70703125 C0 2 0 2 0 0 Z " fill="#E5E6E7" transform="translate(1057,0)"/>
<path d="M0 0 C23.43 0 46.86 0 71 0 C71.0093457 8.32307373 71.01869141 16.64614746 71.02832031 25.22143555 C71.0610588 51.88121417 71.11336592 78.54092014 71.17792095 105.20063959 C71.18793788 109.34477825 71.1977821 113.48891731 71.20751953 117.63305664 C71.2094609 118.4580469 71.21140228 119.28303715 71.21340248 120.13302711 C71.24438603 133.47438463 71.26139294 146.81572497 71.27319422 160.15711167 C71.2856247 173.85636365 71.3131688 187.55552576 71.35461307 201.25472099 C71.3796943 209.7013588 71.39312122 218.14784747 71.39142957 226.59452305 C71.39139972 232.39425695 71.4061091 238.19383942 71.43216428 243.99351426 C71.44674815 247.33495813 71.45287523 250.67583216 71.44580269 254.01733971 C71.10569436 276.11747311 71.10569436 276.11747311 79.5625 296.125 C80.14128906 296.99382812 80.72007812 297.86265625 81.31640625 298.7578125 C82.90637281 300.9929191 82.90637281 300.9929191 84.71484375 302.6796875 C86 304 86 304 86 306 C86.56976562 306.26167969 87.13953125 306.52335937 87.7265625 306.79296875 C90.16842853 308.08942339 92.18505582 309.62706514 94.375 311.3125 C107.25734402 320.23870339 119.68384786 320.73131089 134.77490234 320.65942383 C136.83606429 320.66789174 138.89721824 320.67854254 140.95835876 320.69119263 C146.51325074 320.71917752 152.06775442 320.716896 157.62269545 320.70889878 C163.44298891 320.70576022 169.26316162 320.73084749 175.08340454 320.75285339 C186.08670147 320.79021211 197.08987483 320.80243655 208.09322894 320.8054778 C220.62783629 320.8101775 233.16232055 320.84313008 245.69687343 320.87837565 C271.46459862 320.95020244 297.23217622 320.9830811 323 321 C323 344.43 323 367.86 323 392 C273.03868733 392.82570184 223.09151397 393.13052386 173.12499708 392.78981489 C168.32532509 392.75760098 163.52565123 392.73275158 158.72592163 392.71096802 C152.18022462 392.68086518 145.63476877 392.63404625 139.08925629 392.57631874 C136.67149913 392.55701049 134.25369951 392.54234087 131.83588409 392.53279686 C93.60826321 392.36766287 62.60807308 381.48530719 34.5 354.875 C12.39881069 332.06341532 -0.20636685 301.0041172 -0.12025452 269.37011719 C-0.12110894 268.21580358 -0.12196337 267.06148996 -0.12284368 265.87219715 C-0.124201 262.6864144 -0.12109479 259.50067281 -0.11606562 256.31489491 C-0.11173256 252.87260395 -0.11320957 249.43031478 -0.1139679 245.98802185 C-0.11449132 240.03004506 -0.11136346 234.07207925 -0.10573006 228.11410522 C-0.0975905 219.49995833 -0.09499732 210.88581673 -0.09374207 202.27166641 C-0.09155541 188.29455194 -0.08490578 174.31744332 -0.07543945 160.34033203 C-0.06625535 146.76578806 -0.0591794 133.19124567 -0.05493164 119.61669922 C-0.05466892 118.77945525 -0.05440619 117.94221128 -0.05413551 117.07959628 C-0.05283044 112.87923734 -0.05156674 108.6788784 -0.05032361 104.47851944 C-0.03996301 69.6523411 -0.02153117 34.82617358 0 0 Z " fill="#E5E6E7" transform="translate(824,0)"/>
<path d="M0 0 C23.43 0 46.86 0 71 0 C71.0093457 8.32307373 71.01869141 16.64614746 71.02832031 25.22143555 C71.0610588 51.88121417 71.11336592 78.54092014 71.17792095 105.20063959 C71.18793788 109.34477825 71.1977821 113.48891731 71.20751953 117.63305664 C71.2094609 118.4580469 71.21140228 119.28303715 71.21340248 120.13302711 C71.24438603 133.47438463 71.26139294 146.81572497 71.27319422 160.15711167 C71.2856247 173.85636365 71.3131688 187.55552576 71.35461307 201.25472099 C71.3796943 209.7013588 71.39312122 218.14784747 71.39142957 226.59452305 C71.39139972 232.39425695 71.4061091 238.19383942 71.43216428 243.99351426 C71.44674815 247.33495813 71.45287523 250.67583216 71.44580269 254.01733971 C71.40825987 274.48671536 72.57945863 290.22046505 87.3125 305.8125 C101.2003407 318.94964661 116.3156036 320.59725994 134.54785156 320.54589844 C136.60871659 320.5546453 138.66957484 320.56513494 140.73042297 320.57722473 C146.29363909 320.60496887 151.85663234 320.60849197 157.41990757 320.60750484 C163.24554437 320.61064392 169.07108226 320.63628282 174.89666748 320.65948486 C185.914174 320.69997226 196.93162143 320.72036852 207.94919086 320.73345876 C220.49825545 320.7493534 233.04721986 320.78777943 245.59622622 320.82805204 C271.39747034 320.91035171 297.19865073 320.9615321 323 321 C323 344.43 323 367.86 323 392 C295.52184901 392.06784041 268.04376631 392.12305356 240.56555271 392.15543652 C227.8056341 392.17087519 215.04577139 392.19190714 202.28588867 392.22631836 C191.15843333 392.25631278 180.03101851 392.27559678 168.90352386 392.28226548 C163.01701237 392.28616077 157.13061673 392.29525222 151.24414253 392.31719017 C145.69149835 392.33771424 140.13901656 392.34380193 134.58633804 392.33932304 C132.56003496 392.34014118 130.53372584 392.34601114 128.50745583 392.35761642 C97.66288164 392.52545138 68.86897168 384.40467971 45 364 C43.99839844 363.14792969 42.99679687 362.29585938 41.96484375 361.41796875 C30.65339015 351.54475961 21.8437635 340.38012391 15 327 C14.61924316 326.25766113 14.23848633 325.51532227 13.84619141 324.75048828 C1.74890441 300.87542816 -0.3030362 279.18489066 -0.22705078 252.70751953 C-0.22536821 249.94686779 -0.22671675 247.18621941 -0.22793579 244.42556763 C-0.22897917 238.50533348 -0.22276015 232.58514378 -0.21146011 226.66492081 C-0.19513335 218.10551715 -0.1899898 209.54613475 -0.18748413 200.98671721 C-0.18311823 187.09611313 -0.16983925 173.20553268 -0.15087891 159.31494141 C-0.13249141 145.82991656 -0.11834899 132.34489815 -0.10986328 118.85986328 C-0.10933783 118.02718265 -0.10881239 117.19450202 -0.10827102 116.33658864 C-0.10566074 112.15883761 -0.10313338 107.98108653 -0.10064721 103.80333543 C-0.07994914 69.20220262 -0.04309806 34.60111358 0 0 Z " fill="#E5E6E7" transform="translate(446,0)"/>
<path d="M0 0 C1.16075043 0.00015106 2.32150085 0.00030212 3.51742554 0.00045776 C4.75513702 0.01078033 5.99284851 0.02110291 7.26806641 0.03173828 C9.18638779 0.03598312 9.18638779 0.03598312 11.14346313 0.04031372 C14.5268299 0.04959058 17.90992217 0.06752896 21.29321289 0.08972168 C24.75225465 0.11026038 28.21132487 0.11933252 31.67041016 0.12939453 C38.44523482 0.15141881 45.21989432 0.18593044 51.99462891 0.22705078 C51.99462891 4.84705078 51.99462891 9.46705078 51.99462891 14.22705078 C49.51902466 14.26463501 49.51902466 14.26463501 46.9934082 14.30297852 C40.88248648 14.3970005 34.77167981 14.49723396 28.66088867 14.59936523 C26.01378059 14.64273382 23.36664419 14.68440746 20.71948242 14.72436523 C16.9191839 14.78202101 13.11902823 14.84572922 9.31884766 14.91064453 C8.13127365 14.92735703 6.94369965 14.94406952 5.72013855 14.96128845 C4.61922379 14.98123367 3.51830902 15.00117889 2.3840332 15.02172852 C1.41362595 15.0372728 0.44321869 15.05281708 -0.55659485 15.0688324 C-3.14332784 15.13170207 -3.14332784 15.13170207 -6.00537109 16.22705078 C-7.63916425 19.2065493 -7.63916425 19.2065493 -8.00537109 27.22705078 C7.50462891 27.22705078 23.01462891 27.22705078 38.99462891 27.22705078 C38.99462891 31.84705078 38.99462891 36.46705078 38.99462891 41.22705078 C23.48462891 41.22705078 7.97462891 41.22705078 -8.00537109 41.22705078 C-8.9846217 56.6907094 -8.9846217 56.6907094 -5.00537109 60.22705078 C-2.4984728 60.55877608 -2.4984728 60.55877608 0.45410156 60.54589844 C1.59513336 60.56576813 2.73616516 60.58563782 3.91177368 60.60610962 C5.14825653 60.61766083 6.38473938 60.62921204 7.65869141 60.64111328 C8.92103607 60.66047943 10.18338074 60.67984558 11.48397827 60.69979858 C14.84097103 60.74954123 18.19785206 60.79077651 21.55499268 60.82794189 C24.98028554 60.86793925 28.40541037 60.91905097 31.83056641 60.96923828 C38.55182203 61.06545151 45.27313389 61.14942954 51.99462891 61.22705078 C51.99462891 65.84705078 51.99462891 70.46705078 51.99462891 75.22705078 C44.19672112 75.36311557 36.39947297 75.47297254 28.60070133 75.53792381 C24.97854745 75.56911266 21.3572543 75.61135045 17.7355957 75.6796875 C14.23418783 75.74533495 10.73360273 75.78085021 7.23162651 75.79631424 C5.25904542 75.8126426 3.28679113 75.85940908 1.31471252 75.90682983 C-6.68111099 75.90979857 -12.09209926 74.84591011 -18.00537109 69.22705078 C-23.19621913 62.90597095 -23.16050792 55.25587829 -23.17333984 47.42236328 C-23.17666824 46.69894745 -23.17999664 45.97553162 -23.1834259 45.23019409 C-23.18845751 43.70913319 -23.1908354 42.1880614 -23.19067383 40.66699219 C-23.1928586 38.36520846 -23.2110496 36.06390616 -23.22998047 33.76220703 C-23.30707142 13.96913975 -23.30707142 13.96913975 -17.00537109 6.22705078 C-11.95069463 1.43840992 -6.88110073 -0.03004847 0 0 Z " fill="#E3E4E5" transform="translate(2023.00537109375,434.77294921875)"/>
<path d="M0 0 C4.62 0 9.24 0 14 0 C14 8.91 14 17.82 14 27 C29.51 27 45.02 27 61 27 C61 18.09 61 9.18 61 0 C65.29 0 69.58 0 74 0 C74 24.75 74 49.5 74 75 C69.71 75 65.42 75 61 75 C61 63.78 61 52.56 61 41 C45.49 41 29.98 41 14 41 C14 52.22 14 63.44 14 75 C9.38 75 4.76 75 0 75 C0 50.25 0 25.5 0 0 Z " fill="#E5E6E7" transform="translate(2161,435)"/>
<path d="M0 0 C1.41466553 0.00424484 1.41466553 0.00424484 2.85791016 0.00857544 C5.84290756 0.01968808 8.82759469 0.04477578 11.8125 0.0703125 C13.84765189 0.08035384 15.88280852 0.08947766 17.91796875 0.09765625 C22.88293037 0.11959815 27.84766275 0.15406577 32.8125 0.1953125 C32.8125 4.8153125 32.8125 9.4353125 32.8125 14.1953125 C31.67820557 14.20989502 30.54391113 14.22447754 29.37524414 14.23950195 C25.13128525 14.2978619 20.8878362 14.37508978 16.64428711 14.45776367 C14.81429372 14.49083681 12.98420263 14.51892249 11.15405273 14.54174805 C8.50983387 14.57562057 5.86649621 14.62794891 3.22265625 14.68359375 C2.01271751 14.69317863 2.01271751 14.69317863 0.77833557 14.70295715 C-7.15187558 14.90416971 -15.14234914 16.8371106 -21.1875 22.1953125 C-26.11347845 29.06301261 -27.40473002 35.88140182 -26.1875 44.1953125 C-24.42197853 50.38502306 -20.52852464 54.70865608 -15.1875 58.1953125 C-10.37057653 60.72731526 -5.60496138 60.54229781 -0.29296875 60.609375 C1.12806404 60.63842422 1.12806404 60.63842422 2.57780457 60.6680603 C5.59344577 60.72767621 8.60912552 60.77416955 11.625 60.8203125 C13.67384446 60.85850883 15.72267314 60.89756152 17.77148438 60.9375 C22.78502762 61.03336303 27.79864603 61.11746057 32.8125 61.1953125 C32.8125 65.8153125 32.8125 70.4353125 32.8125 75.1953125 C26.44454414 75.29477595 20.07704838 75.36706142 13.70849609 75.41503906 C11.54565546 75.4350564 9.38286827 75.4622788 7.22021484 75.49707031 C4.09719594 75.54602497 0.9748974 75.56838067 -2.1484375 75.5859375 C-3.58030899 75.61690521 -3.58030899 75.61690521 -5.04110718 75.64849854 C-15.75689097 75.65201679 -24.52959241 71.64783559 -32.1875 64.1953125 C-39.48089494 55.34132214 -42.71259508 45.72239996 -42.0078125 34.27734375 C-40.6389433 23.48003873 -35.84149155 13.95955487 -27.1875 7.1953125 C-18.5300544 1.3351282 -10.26763631 -0.11785889 0 0 Z " fill="#E5E6E7" transform="translate(2119.1875,434.8046875)"/>
<path d="M0 0 C24.42 0 48.84 0 74 0 C74 4.62 74 9.24 74 14 C64.1 14 54.2 14 44 14 C44 34.13 44 54.26 44 75 C39.38 75 34.76 75 30 75 C30 54.87 30 34.74 30 14 C20.1 14 10.2 14 0 14 C0 9.38 0 4.76 0 0 Z " fill="#E5E6E7" transform="translate(1917,435)"/>
</svg>
